# Blender 5.1.2
# www.blender.org
mtllib 摳摳摳.mtl
o obj1
v -0.062676 14.578182 -0.114096
v -0.030917 13.975986 -0.117006
v -0.087965 14.012643 -0.108706
v -0.124925 2.572553 -0.022608
v -0.125634 2.572461 0.005313
v -0.149858 2.697445 -0.011928
v -0.063229 14.578124 -0.092313
v -0.088367 14.012591 -0.092851
v -0.032018 13.975847 -0.073617
v -0.080080 14.804315 -0.106651
v -0.063229 14.578124 -0.092313
v -0.062676 14.578182 -0.114096
v 0.113361 -0.498062 -0.014679
v 0.120338 -0.228079 -0.016297
v 0.117633 -0.228404 0.090238
v 0.110656 -0.498386 0.091858
v 0.122907 0.003530 -0.017997
v 0.120202 0.003205 0.088540
v -0.133471 2.110111 -0.049900
v -0.142668 1.868473 -0.057742
v -0.145372 1.868139 0.048793
v -0.135719 2.109844 0.038631
v -0.142063 1.670482 -0.056035
v -0.144768 1.670158 0.050502
v 0.059870 10.154166 -0.098416
v 0.050959 10.934745 -0.102418
v 0.048933 10.934505 -0.022601
v 0.057675 10.153897 -0.011961
v 0.039300 11.714268 -0.106711
v 0.037439 11.714047 -0.033429
v 0.022495 12.491813 -0.111532
v 0.020797 12.491605 -0.044637
v -0.000546 13.251136 -0.115444
v -0.002015 13.250955 -0.057580
v 0.077065 8.460266 -0.088779
v 0.068426 9.373447 -0.094466
v 0.066061 9.373170 -0.001332
v 0.074563 8.459967 0.009788
v -0.030917 13.975986 -0.117006
v -0.032018 13.975847 -0.073617
v -0.137721 8.345297 -0.063753
v -0.138996 9.293973 -0.071242
v 0.068426 9.373447 -0.094466
v 0.077065 8.460266 -0.088779
v -0.138920 10.077996 -0.077423
v 0.059870 10.154166 -0.098416
v -0.286710 0.559097 -0.059923
v -0.276813 0.680138 -0.060033
v -0.276335 0.340764 -0.057157
v -0.290665 0.362120 -0.058639
v -0.260201 0.718249 -0.058840
v -0.259050 0.300936 -0.055250
v -0.257900 -0.116368 -0.051662
v -0.275857 0.001389 -0.054279
v -0.287455 0.154469 -0.056613
v 0.061756 -0.953830 -0.015572
v 0.002030 -1.066960 -0.020065
v 0.000419 -0.846095 -0.022054
v 0.096350 -0.752085 -0.014106
v -0.058502 -1.069658 -0.025552
v -0.095513 -0.940105 -0.030003
v -0.115783 -0.703342 -0.033825
v -0.001211 -0.600697 -0.024251
v 0.113361 -0.498062 -0.014679
v -0.138604 10.862106 -0.083618
v 0.050959 10.934745 -0.102418
v -0.136357 11.646955 -0.089660
v 0.039300 11.714268 -0.106711
v -0.130490 12.433190 -0.095380
v 0.022495 12.491813 -0.111532
v -0.114131 13.207683 -0.101394
v -0.000546 13.251136 -0.115444
v -0.151154 12.425273 -0.093261
v -0.135339 13.215312 -0.098417
v -0.159881 11.637933 -0.087482
v -0.163882 10.852410 -0.081287
v -0.165362 10.067857 -0.074873
v -0.166526 9.283424 -0.068430
v -0.166182 8.335041 -0.060481
v -0.115783 -0.703342 -0.033825
v -0.095513 -0.940105 -0.030003
v -0.097977 -0.987058 0.076945
v -0.118488 -0.703666 0.072713
v -0.058502 -1.069658 -0.025552
v -0.060837 -1.141652 0.081616
v 0.061756 -0.953830 -0.015572
v 0.096350 -0.752085 -0.014106
v 0.093645 -0.752410 0.092430
v 0.059291 -1.000783 0.091377
v 0.002030 -1.066960 -0.020065
v -0.000305 -1.138955 0.087105
v 0.122907 0.003530 -0.017997
v 0.120338 -0.228079 -0.016297
v -0.002877 -0.306242 -0.026862
v -0.022705 -0.002131 -0.031206
v -0.126091 -0.384413 -0.037425
v -0.133692 -0.101940 -0.040476
v 0.112786 3.211874 0.061055
v 0.115490 3.212198 -0.045442
v 0.111768 3.729801 -0.049787
v 0.109080 3.729479 0.056083
v -0.117756 2.421664 -0.034036
v -0.119140 2.421496 0.020505
v 0.128949 0.415974 -0.020891
v 0.126900 1.051487 -0.026382
v 0.124196 1.051162 0.080154
v 0.126244 0.415649 0.085647
v 0.122948 1.818282 -0.033143
v 0.120243 1.817958 0.073392
v 0.122948 1.818282 -0.033143
v 0.126900 1.051487 -0.026382
v -0.140875 1.281315 -0.052678
v -0.142063 1.670482 -0.056035
v 0.128949 0.415974 -0.020891
v -0.139675 0.887895 -0.049283
v 0.119487 2.485666 -0.039030
v 0.116782 2.485342 0.067505
v 0.116996 2.959926 -0.043218
v 0.114291 2.959601 0.063320
v 0.116996 2.959926 -0.043218
v 0.119487 2.485666 -0.039030
v -0.142668 1.868473 -0.057742
v -0.133471 2.110111 -0.049900
v 0.115490 3.212198 -0.045442
v -0.117756 2.421664 -0.034036
v -0.110072 14.008917 -0.102741
v -0.080080 14.804315 -0.106651
v 0.111768 3.729801 -0.049787
v -0.124925 2.572553 -0.022608
v -0.154299 4.157799 -0.024524
v -0.158728 5.613173 -0.037078
v -0.129235 5.618985 -0.042120
v -0.124906 4.160025 -0.030499
v -0.149858 2.697445 -0.011928
v 0.104729 4.708890 -0.057991
v 0.095562 5.983769 -0.068678
v -0.133987 7.067186 -0.053623
v -0.163136 7.058603 -0.049547
v 0.086226 7.282304 -0.079561
v 0.095562 5.983769 -0.068678
v 0.086226 7.282304 -0.079561
v 0.083650 7.281986 0.021901
v 0.092946 5.983449 0.034396
v 0.104729 4.708890 -0.057991
v 0.102072 4.708567 0.046663
v -0.139167 10.077962 -0.067700
v -0.139261 9.293945 -0.060804
v 0.066061 9.373170 -0.001332
v 0.057675 10.153897 -0.011961
v -0.138014 8.345260 -0.052225
v 0.074563 8.459967 0.009788
v -0.290160 0.154136 0.049923
v -0.278561 0.001065 0.052257
v -0.279040 0.340439 0.049381
v -0.293370 0.361795 0.047898
v -0.260605 -0.116693 0.054876
v -0.261755 0.300611 0.051286
v -0.262905 0.717924 0.047698
v -0.279518 0.679814 0.046503
v -0.289414 0.558772 0.046612
v 0.110656 -0.498386 0.091858
v -0.003916 -0.601022 0.082284
v -0.002286 -0.846420 0.084481
v 0.093645 -0.752410 0.092430
v -0.118488 -0.703666 0.072713
v -0.097977 -0.987058 0.076945
v -0.060837 -1.141652 0.081616
v -0.000305 -1.138955 0.087105
v 0.059291 -1.000783 0.091377
v -0.136572 11.646924 -0.081191
v -0.138834 10.862073 -0.074537
v 0.048933 10.934505 -0.022601
v 0.037439 11.714047 -0.033429
v -0.114383 13.207648 -0.091474
v -0.130690 12.433164 -0.087528
v 0.020797 12.491605 -0.044637
v -0.002015 13.250955 -0.057580
v -0.151154 12.425273 -0.093261
v -0.159881 11.637933 -0.087482
v -0.135339 13.215312 -0.098417
v -0.163882 10.852410 -0.081287
v -0.165362 10.067857 -0.074873
v -0.166526 9.283424 -0.068430
v -0.166182 8.335041 -0.060481
v -0.005581 -0.306567 0.079676
v -0.128795 -0.384738 0.069111
v 0.117633 -0.228404 0.090238
v 0.120202 0.003205 0.088540
v -0.025409 -0.002455 0.075331
v -0.136397 -0.102265 0.066062
v 0.112786 3.211874 0.061055
v 0.109080 3.729479 0.056083
v -0.125634 2.572461 0.005313
v -0.119140 2.421496 0.020505
v 0.126244 0.415649 0.085647
v 0.124196 1.051162 0.080154
v -0.143580 1.280981 0.053860
v -0.142379 0.887570 0.057253
v 0.120243 1.817958 0.073392
v -0.144768 1.670158 0.050502
v 0.116782 2.485342 0.067505
v -0.145372 1.868139 0.048793
v 0.114291 2.959601 0.063320
v -0.135719 2.109844 0.038631
v -0.110072 14.008917 -0.102741
v -0.080080 14.804315 -0.106651
v -0.149858 2.697445 -0.011928
v -0.125343 4.159978 -0.013273
v -0.154299 4.157799 -0.024524
v -0.129625 5.618938 -0.026799
v -0.158728 5.613173 -0.037078
v 0.102072 4.708567 0.046663
v 0.092946 5.983449 0.034396
v -0.134325 7.067148 -0.040337
v -0.163136 7.058603 -0.049547
v 0.083650 7.281986 0.021901
v -0.126091 -0.384413 -0.037425
v -0.128795 -0.384738 0.069111
v -0.136397 -0.102265 0.066062
v -0.133692 -0.101940 -0.040476
v -0.159673 0.024877 -0.043900
v -0.172321 -0.076667 -0.044203
v -0.211573 0.127043 -0.049476
v -0.210116 0.585814 -0.053175
v -0.184713 -0.201069 -0.044292
v -0.213932 -0.277944 -0.046311
v -0.212821 0.585489 0.053362
v -0.214277 0.126719 0.057059
v -0.175026 -0.077001 0.062333
v -0.162378 0.024552 0.062638
v -0.216637 -0.278278 0.060226
v -0.187417 -0.201394 0.062244
v 0.126697 0.142436 -0.018812
v -0.139032 0.677200 -0.047466
v -0.142362 0.581169 -0.046967
v 0.123993 0.142111 0.087725
v 0.126697 0.142436 -0.018812
v 0.123993 0.142111 0.087725
v -0.141736 0.676875 0.059071
v -0.145067 0.580836 0.059568
v -0.213932 -0.277944 -0.046311
v -0.184713 -0.201069 -0.044292
v -0.187417 -0.201394 0.062244
v -0.216637 -0.278278 0.060226
v -0.172321 -0.076667 -0.044203
v -0.175026 -0.077001 0.062333
v -0.159673 0.024877 -0.043900
v -0.162378 0.024552 0.062638
v -0.145842 0.025476 -0.042645
v -0.148546 0.025151 0.063891
v -0.190577 0.537292 0.055791
v -0.148546 0.025151 0.063891
v -0.171691 0.519824 0.057654
v -0.287455 0.154469 -0.056613
v -0.275857 0.001389 -0.054279
v -0.278561 0.001065 0.052257
v -0.290160 0.154136 0.049923
v -0.257900 -0.116368 -0.051662
v -0.260605 -0.116693 0.054876
v -0.235616 -0.218068 -0.048784
v -0.238321 -0.218402 0.057752
v -0.260201 0.718249 -0.058840
v -0.276813 0.680138 -0.060033
v -0.279518 0.679814 0.046503
v -0.262905 0.717924 0.047698
v -0.286710 0.559097 -0.059923
v -0.289414 0.558772 0.046612
v -0.210116 0.585814 -0.053175
v -0.236097 0.666415 -0.056213
v -0.238802 0.666090 0.050325
v -0.212821 0.585489 0.053362
v -0.235857 0.224173 -0.052499
v -0.235616 -0.218068 -0.048784
v -0.236097 0.666415 -0.056213
v -0.238802 0.666090 0.050325
v -0.238561 0.223849 0.054039
v -0.238321 -0.218402 0.057752
v -0.293370 0.361795 0.047898
v -0.290665 0.362120 -0.058639
v -0.168987 0.520149 -0.048881
v -0.153082 0.531735 -0.047530
v -0.140875 1.281315 -0.052678
v -0.143580 1.280981 0.053860
v -0.139675 0.887895 -0.049283
v -0.142379 0.887570 0.057253
v -0.190577 0.537292 0.055791
v -0.187872 0.537617 -0.050747
v -0.171691 0.519824 0.057654
v -0.168987 0.520149 -0.048881
v -0.139032 0.677200 -0.047466
v -0.141736 0.676875 0.059071
v -0.142362 0.581169 -0.046967
v -0.145067 0.580836 0.059568
v -0.153082 0.531735 -0.047530
v -0.155786 0.531411 0.059005
v -0.155786 0.531411 0.059005
v -0.145842 0.025476 -0.042645
v -0.187872 0.537617 -0.050747
vn -0.2866 0.0031 -0.9581
vn -0.1239 -0.0067 -0.9923
vn -0.1652 -0.0038 -0.9862
vn -0.9966 -0.0765 -0.0295
vn -0.9969 -0.0759 -0.0223
vn -0.9807 -0.1936 -0.0255
vn -0.4392 0.0175 0.8982
vn -0.3367 0.0088 0.9416
vn -0.2956 0.0095 0.9553
vn 0.9968 0.0759 0.0255
vn 0.9985 0.0487 0.0248
vn 0.9985 0.0488 0.0266
vn 0.9986 -0.0470 0.0252
vn 0.9995 -0.0195 0.0253
vn 0.9996 -0.0152 0.0253
vn 0.9996 -0.0151 0.0253
vn -0.9987 0.0449 -0.0252
vn -0.9995 0.0205 -0.0258
vn -0.9995 0.0204 -0.0249
vn -0.9987 0.0448 -0.0252
vn -0.9997 -0.0033 -0.0254
vn 0.9996 0.0113 0.0254
vn 0.9996 0.0133 0.0254
vn 0.9995 0.0182 0.0254
vn 0.9993 0.0256 0.0255
vn 0.9993 0.0255 0.0255
vn 0.9991 0.0349 0.0255
vn 0.9996 0.0086 0.0254
vn 0.9996 0.0103 0.0254
vn 0.9987 0.0430 0.0257
vn 0.9988 0.0429 0.0254
vn -0.1111 -0.0078 -0.9938
vn -0.1077 -0.0069 -0.9942
vn -0.1087 -0.0076 -0.9941
vn -0.1104 -0.0078 -0.9939
vn -0.1018 -0.0065 -0.9948
vn -0.1034 -0.0075 -0.9946
vn 0.0906 -0.0083 -0.9958
vn 0.0906 -0.0083 -0.9959
vn 0.0907 -0.0083 -0.9958
vn -0.0952 -0.0066 -0.9954
vn -0.0983 -0.0075 -0.9951
vn -0.0955 -0.0075 -0.9954
vn -0.0963 -0.0073 -0.9953
vn -0.1051 -0.0078 -0.9944
vn -0.1013 -0.0066 -0.9948
vn -0.1216 -0.0085 -0.9925
vn -0.1148 -0.0068 -0.9934
vn -0.1034 -0.0061 -0.9946
vn -0.1517 -0.0047 -0.9884
vn -0.0910 -0.0071 -0.9958
vn -0.0898 -0.0076 -0.9959
vn -0.0931 -0.0079 -0.9956
vn -0.1009 -0.0077 -0.9949
vn -0.1158 -0.0081 -0.9932
vn -0.9981 -0.0559 -0.0240
vn -0.9854 -0.1638 -0.0470
vn -0.9828 -0.1780 -0.0496
vn -0.9979 -0.0591 -0.0254
vn -0.7900 -0.5845 -0.1853
vn -0.7541 -0.6284 -0.1909
vn 0.9583 -0.2850 -0.0187
vn 0.9924 -0.1206 0.0248
vn 0.9922 -0.1221 0.0236
vn 0.9513 -0.3063 -0.0346
vn 0.7083 -0.6838 -0.1753
vn 0.6872 -0.7002 -0.1935
vn 0.9997 0.0072 0.0254
vn 0.9996 0.0074 0.0254
vn -0.9973 0.0593 -0.0441
vn -0.9982 0.0592 -0.0075
vn 0.9997 0.0022 0.0253
vn 0.9997 0.0046 0.0254
vn 0.9997 0.0054 0.0254
vn 0.9997 0.0056 0.0254
vn -0.0348 0.0406 -0.9986
vn 0.0640 0.0052 -0.9979
vn 0.0876 -0.0159 -0.9960
vn 0.0569 -0.0171 -0.9982
vn -0.1166 0.0365 -0.9925
vn -0.0631 -0.0146 -0.9979
vn -0.2580 0.0035 -0.9661
vn -0.2980 0.0015 -0.9546
vn -0.0937 -0.0030 -0.9956
vn -0.1867 -0.0225 -0.9822
vn -0.2180 -0.0079 -0.9759
vn -0.1681 -0.0081 -0.9857
vn -0.1114 -0.0077 -0.9937
vn -0.1125 -0.0089 -0.9936
vn -0.2719 -0.0125 -0.9622
vn -0.0912 -0.0077 -0.9958
vn -0.0963 -0.0077 -0.9953
vn -0.1117 -0.0080 -0.9937
vn -0.1387 -0.0078 -0.9903
vn -0.1046 -0.0077 -0.9945
vn 0.9997 0.0074 0.0254
vn 0.9996 0.0077 0.0254
vn -0.2747 0.0098 0.9615
vn -0.2802 0.0093 0.9599
vn -0.2822 0.0087 0.9593
vn -0.2774 0.0087 0.9607
vn -0.2839 0.0085 0.9588
vn -0.2826 0.0085 0.9592
vn -0.0907 0.0083 0.9958
vn -0.0906 0.0083 0.9959
vn -0.0906 0.0083 0.9958
vn -0.0908 0.0083 0.9958
vn -0.2693 0.0088 0.9630
vn -0.2700 0.0095 0.9628
vn -0.2722 0.0088 0.9622
vn -0.2697 0.0092 0.9629
vn -0.2961 0.0091 0.9551
vn -0.2761 0.0079 0.9611
vn -0.2742 0.0096 0.9616
vn -0.2837 0.0098 0.9589
vn -0.2781 0.0100 0.9605
vn -0.2647 0.0093 0.9643
vn -0.3198 0.0126 0.9474
vn -0.2642 0.0087 0.9644
vn -0.2674 0.0084 0.9636
vn -0.2740 0.0085 0.9617
vn -0.2879 0.0083 0.9576
vn -0.2855 0.0524 0.9569
vn -0.2631 0.0143 0.9647
vn -0.3260 -0.0043 0.9454
vn -0.2352 -0.0017 0.9719
vn -0.1214 0.0215 0.9924
vn -0.1034 0.0004 0.9946
vn -0.2178 0.0558 0.9744
vn -0.1278 -0.0007 0.9918
vn -0.4100 0.0165 0.9119
vn -0.4464 0.0181 0.8947
vn -0.4426 0.0004 0.8967
vn -0.2830 0.0091 0.9591
vn -0.3836 0.0099 0.9235
vn -0.2842 0.0081 0.9587
vn -0.3344 0.0077 0.9424
vn -0.2622 0.0093 0.9650
vn -0.2704 0.0088 0.9627
vn -0.2842 0.0082 0.9587
vn -0.3089 0.0084 0.9511
vn -0.2783 0.0085 0.9605
vn -0.9992 -0.0302 -0.0255
vn -0.9992 -0.0302 -0.0254
vn -0.9987 -0.0440 -0.0255
vn -0.9987 -0.0443 -0.0257
vn 0.9996 -0.0117 0.0253
vn 0.1720 -0.9851 -0.0001
vn 0.9742 -0.2243 0.0241
vn 0.9741 -0.2248 0.0246
vn 0.1580 -0.9874 0.0006
vn 0.9936 -0.1104 0.0249
vn 0.9432 -0.3315 0.0225
vn 0.9441 -0.3290 0.0229
vn -0.9573 -0.2881 -0.0251
vn -0.9572 -0.2883 -0.0244
vn -0.0913 0.0083 0.9958
vn -0.9988 -0.0415 -0.0255
vn -0.9933 -0.1127 -0.0256
vn -0.9932 -0.1132 -0.0255
vn -0.9988 -0.0419 -0.0255
vn -0.9829 -0.1826 -0.0255
vn -0.9828 -0.1827 -0.0255
vn -0.9631 -0.2679 -0.0253
vn -0.9631 -0.2680 -0.0253
vn 0.1638 0.9865 0.0075
vn -0.9803 0.1960 -0.0243
vn -0.9804 0.1956 -0.0243
vn 0.1519 0.9884 0.0058
vn -0.9988 0.0422 -0.0251
vn -0.9988 0.0423 -0.0252
vn 0.9345 0.3552 0.0248
vn 0.9336 0.3575 0.0248
vn 0.9336 0.3576 0.0248
vn -0.9997 0.0012 -0.0254
vn -0.9997 0.0013 -0.0254
vn 0.8395 0.5428 0.0230
vn 0.8390 0.5436 0.0230
vn 0.1309 0.9914 0.0062
vn 0.1246 0.9922 0.0062
vn -0.9997 0.0020 -0.0252
vn -0.9997 0.0019 -0.0253
vn -0.9931 0.1146 -0.0249
vn -0.9931 0.1144 -0.0249
vn -0.9087 0.4168 -0.0218
vn -0.9079 0.4185 -0.0221
vt 0.742080 0.875440
vt 0.749880 0.854200
vt 0.733860 0.856460
vt 0.911150 0.985960
vt 0.907270 0.985960
vt 0.909210 0.994140
vt 0.807700 0.986070
vt 0.815770 0.967030
vt 0.799740 0.964900
vt 0.909210 0.169510
vt 0.907700 0.178690
vt 0.910730 0.178690
vt 0.916620 0.703070
vt 0.916620 0.693590
vt 0.901800 0.693590
vt 0.901800 0.703070
vt 0.916620 0.685590
vt 0.901800 0.685590
vt 0.915370 0.968800
vt 0.916620 0.960080
vt 0.901800 0.960080
vt 0.903060 0.968800
vt 0.916620 0.953270
vt 0.901800 0.953270
vt 0.915220 0.335730
vt 0.914760 0.308760
vt 0.903660 0.308760
vt 0.903200 0.335730
vt 0.914310 0.281740
vt 0.904120 0.281740
vt 0.913860 0.254570
vt 0.904560 0.254570
vt 0.913240 0.227640
vt 0.905190 0.227640
vt 0.916060 0.394200
vt 0.915690 0.362690
vt 0.902740 0.362690
vt 0.902360 0.394200
vt 0.912230 0.201260
vt 0.906190 0.201260
vt 0.708810 0.662750
vt 0.710310 0.695340
vt 0.768890 0.694470
vt 0.769540 0.662970
vt 0.711860 0.722250
vt 0.767990 0.721420
vt 0.652370 0.396820
vt 0.655350 0.400830
vt 0.654950 0.389170
vt 0.650940 0.390110
vt 0.660100 0.401900
vt 0.659750 0.387550
vt 0.659410 0.373200
vt 0.654530 0.377500
vt 0.651510 0.382930
vt 0.748170 0.339810
vt 0.731150 0.336790
vt 0.731050 0.344400
vt 0.758240 0.346240
vt 0.714080 0.337570
vt 0.703860 0.342560
vt 0.698530 0.350980
vt 0.730990 0.352850
vt 0.763450 0.354720
vt 0.713480 0.749170
vt 0.767000 0.748370
vt 0.715640 0.776070
vt 0.765240 0.775340
vt 0.718820 0.802960
vt 0.762020 0.802330
vt 0.724930 0.829270
vt 0.757020 0.828790
vt 0.712990 0.803050
vt 0.718970 0.829900
vt 0.709000 0.776170
vt 0.706350 0.749270
vt 0.704400 0.722360
vt 0.702540 0.695450
vt 0.700780 0.662890
vt 0.916620 0.780690
vt 0.916620 0.770710
vt 0.901800 0.770710
vt 0.901800 0.780690
vt 0.916620 0.759340
vt 0.901800 0.759340
vt 0.916620 0.724970
vt 0.916620 0.713020
vt 0.901800 0.713020
vt 0.901800 0.724970
vt 0.916620 0.742250
vt 0.901800 0.742250
vt 0.766940 0.371810
vt 0.765850 0.363900
vt 0.730990 0.362990
vt 0.725890 0.373720
vt 0.696130 0.362090
vt 0.694440 0.371900
vt 0.901810 0.575030
vt 0.916620 0.575030
vt 0.916570 0.557200
vt 0.901850 0.557200
vt 0.913000 0.980420
vt 0.905420 0.980420
vt 0.916620 0.671280
vt 0.916620 0.649420
vt 0.901800 0.649420
vt 0.901800 0.671280
vt 0.916620 0.623020
vt 0.901800 0.623020
vt 0.769870 0.434150
vt 0.769750 0.407750
vt 0.694640 0.419520
vt 0.694930 0.432900
vt 0.769310 0.385890
vt 0.694340 0.405980
vt 0.916620 0.600050
vt 0.901800 0.600050
vt 0.916620 0.583720
vt 0.901800 0.583720
vt 0.770040 0.473450
vt 0.769960 0.457120
vt 0.695070 0.439710
vt 0.698100 0.447980
vt 0.770080 0.482140
vt 0.703000 0.458780
vt 0.727590 0.856730
vt 0.737510 0.883540
vt 0.770040 0.499970
vt 0.701170 0.464330
vt 0.695930 0.519280
vt 0.697540 0.569320
vt 0.705870 0.569000
vt 0.704240 0.518840
vt 0.694230 0.469080
vt 0.769980 0.533700
vt 0.769900 0.577630
vt 0.707370 0.618800
vt 0.699130 0.619010
vt 0.769810 0.622370
vt 0.916380 0.479540
vt 0.916270 0.434800
vt 0.902160 0.434800
vt 0.902050 0.479540
vt 0.916490 0.523460
vt 0.901930 0.523460
vt 0.836760 0.832660
vt 0.838110 0.805730
vt 0.779530 0.805310
vt 0.780620 0.832250
vt 0.839360 0.773130
vt 0.778640 0.773810
vt 0.894420 0.492880
vt 0.891350 0.487470
vt 0.891030 0.499140
vt 0.895040 0.500050
vt 0.886450 0.483200
vt 0.886210 0.497560
vt 0.885980 0.511910
vt 0.890710 0.510810
vt 0.893660 0.506770
vt 0.782270 0.465530
vt 0.814710 0.463410
vt 0.814580 0.454960
vt 0.787410 0.457010
vt 0.847160 0.461290
vt 0.841760 0.452910
vt 0.831500 0.448000
vt 0.814430 0.447350
vt 0.797430 0.450500
vt 0.833380 0.886510
vt 0.835340 0.859590
vt 0.781820 0.859200
vt 0.783780 0.886150
vt 0.824490 0.939780
vt 0.830400 0.913420
vt 0.787200 0.913110
vt 0.792400 0.939540
vt 0.836240 0.913470
vt 0.840020 0.886560
vt 0.830460 0.940360
vt 0.842480 0.859640
vt 0.844220 0.832710
vt 0.845880 0.805790
vt 0.847400 0.773210
vt 0.814790 0.473550
vt 0.849640 0.472380
vt 0.779940 0.474720
vt 0.778900 0.482650
vt 0.819970 0.484240
vt 0.851400 0.482170
vt 0.776680 0.592990
vt 0.776910 0.610820
vt 0.845520 0.574670
vt 0.843590 0.569150
vt 0.776650 0.496740
vt 0.776370 0.518600
vt 0.851570 0.529790
vt 0.851760 0.516260
vt 0.776460 0.545000
vt 0.851380 0.543180
vt 0.776540 0.567970
vt 0.851290 0.549990
vt 0.776600 0.584300
vt 0.848360 0.558290
vt 0.822050 0.967250
vt 0.812320 0.994140
vt 0.852500 0.579350
vt 0.842850 0.629200
vt 0.851170 0.629570
vt 0.841600 0.679370
vt 0.849930 0.679620
vt 0.777230 0.644550
vt 0.777640 0.688480
vt 0.840480 0.729180
vt 0.848710 0.729330
vt 0.778060 0.733220
vt 0.916620 0.792040
vt 0.901800 0.792040
vt 0.901800 0.802000
vt 0.916620 0.802000
vt 0.687320 0.376630
vt 0.683600 0.373320
vt 0.672860 0.380890
vt 0.674000 0.396630
vt 0.679900 0.369230
vt 0.671540 0.367010
vt 0.872030 0.506750
vt 0.873060 0.491000
vt 0.862260 0.483520
vt 0.858560 0.486850
vt 0.874270 0.477110
vt 0.865920 0.479400
vt 0.768230 0.376530
vt 0.694190 0.398740
vt 0.693100 0.395490
vt 0.901800 0.680700
vt 0.916620 0.680700
vt 0.777650 0.487370
vt 0.851860 0.509010
vt 0.852930 0.505750
vt 0.916620 0.830630
vt 0.916620 0.821980
vt 0.901800 0.821980
vt 0.901800 0.830630
vt 0.916620 0.816460
vt 0.901800 0.816460
vt 0.916620 0.811480
vt 0.901800 0.811480
vt 0.916620 0.807580
vt 0.901800 0.807580
vt 0.865820 0.504820
vt 0.854660 0.486700
vt 0.860520 0.503980
vt 0.916620 0.857020
vt 0.916620 0.850800
vt 0.901800 0.850800
vt 0.901800 0.857020
vt 0.916620 0.844300
vt 0.901800 0.844300
vt 0.916620 0.837090
vt 0.901800 0.837090
vt 0.916620 0.880940
vt 0.916620 0.876080
vt 0.901800 0.876080
vt 0.901800 0.880940
vt 0.916620 0.871080
vt 0.901800 0.871080
vt 0.916620 0.895830
vt 0.916620 0.887980
vt 0.901800 0.887980
vt 0.901800 0.895830
vt 0.666170 0.384580
vt 0.665530 0.369380
vt 0.666810 0.399770
vt 0.879250 0.509830
vt 0.879770 0.494640
vt 0.880300 0.479440
vt 0.901800 0.864220
vt 0.916620 0.864220
vt 0.685490 0.393780
vt 0.689990 0.393950
vt 0.916620 0.939880
vt 0.901800 0.939880
vt 0.916620 0.926350
vt 0.901800 0.926350
vt 0.901800 0.902330
vt 0.916620 0.902330
vt 0.901800 0.907700
vt 0.916620 0.907700
vt 0.916620 0.919100
vt 0.901800 0.919100
vt 0.916620 0.915670
vt 0.901800 0.915670
vt 0.916620 0.912210
vt 0.901800 0.912210
vt 0.856020 0.504190
vt 0.691220 0.376450
vt 0.680200 0.394650
s 1
usemtl mat0
f 1/1/1 2/2/2 3/3/3
f 4/4/4 5/5/5 6/6/6
f 7/7/7 8/8/8 9/9/9
f 10/10/10 11/11/11 12/12/12
f 13/13/13 14/14/14 15/15/14
f 13/13/13 15/15/14 16/16/13
f 14/14/14 17/17/15 18/18/16
f 14/14/14 18/18/16 15/15/14
f 19/19/17 20/20/18 21/21/19
f 19/19/17 21/21/19 22/22/20
f 20/20/18 23/23/21 24/24/21
f 20/20/18 24/24/21 21/21/19
f 25/25/22 26/26/23 27/27/23
f 25/25/22 27/27/23 28/28/22
f 26/26/23 29/29/24 30/30/24
f 26/26/23 30/30/24 27/27/23
f 30/30/24 29/29/24 31/31/25
f 30/30/24 31/31/25 32/32/26
f 31/31/25 33/33/27 34/34/27
f 31/31/25 34/34/27 32/32/26
f 35/35/28 36/36/29 37/37/29
f 35/35/28 37/37/29 38/38/28
f 36/36/29 25/25/22 28/28/22
f 36/36/29 28/28/22 37/37/29
f 34/34/27 33/33/27 39/39/30
f 34/34/27 39/39/30 40/40/31
f 39/39/30 12/12/12 11/11/11
f 39/39/30 11/11/11 40/40/31
f 41/41/32 42/42/33 43/43/34
f 41/41/32 43/43/34 44/44/35
f 42/42/33 45/45/36 46/46/37
f 42/42/33 46/46/37 43/43/34
f 47/47/38 48/48/39 49/49/40
f 47/47/38 49/49/40 50/50/38
f 48/48/39 51/51/39 52/52/40
f 48/48/39 52/52/40 49/49/40
f 49/49/40 52/52/40 53/53/38
f 49/49/40 53/53/38 54/54/39
f 50/50/38 49/49/40 54/54/39
f 50/50/38 54/54/39 55/55/40
f 56/56/38 57/57/38 58/58/40
f 56/56/38 58/58/40 59/59/40
f 57/57/38 60/60/38 61/61/40
f 57/57/38 61/61/40 58/58/40
f 58/58/40 61/61/40 62/62/40
f 58/58/40 62/62/40 63/63/40
f 59/59/40 58/58/40 63/63/40
f 59/59/40 63/63/40 64/64/38
f 46/46/37 45/45/36 65/65/41
f 46/46/37 65/65/41 66/66/42
f 65/65/41 67/67/43 68/68/44
f 65/65/41 68/68/44 66/66/42
f 68/68/44 67/67/43 69/69/45
f 68/68/44 69/69/45 70/70/46
f 69/69/45 71/71/47 72/72/48
f 69/69/45 72/72/48 70/70/46
f 72/72/48 71/71/47 3/3/3
f 72/72/48 3/3/3 2/2/2
f 71/71/47 69/69/45 73/73/49
f 71/71/47 73/73/49 74/74/50
f 69/69/45 67/67/43 75/75/51
f 69/69/45 75/75/51 73/73/49
f 75/75/51 67/67/43 65/65/41
f 75/75/51 65/65/41 76/76/52
f 65/65/41 45/45/36 77/77/53
f 65/65/41 77/77/53 76/76/52
f 77/77/53 45/45/36 42/42/33
f 77/77/53 42/42/33 78/78/54
f 42/42/33 41/41/32 79/79/55
f 42/42/33 79/79/55 78/78/54
f 80/80/56 81/81/57 82/82/58
f 80/80/56 82/82/58 83/83/59
f 81/81/57 84/84/60 85/85/61
f 81/81/57 85/85/61 82/82/58
f 86/86/62 87/87/63 88/88/64
f 86/86/62 88/88/64 89/89/65
f 87/87/63 13/13/13 16/16/13
f 87/87/63 16/16/13 88/88/64
f 85/85/61 84/84/60 90/90/66
f 85/85/61 90/90/66 91/91/67
f 90/90/66 86/86/62 89/89/65
f 90/90/66 89/89/65 91/91/67
f 92/92/40 93/93/40 94/94/40
f 92/92/40 94/94/40 95/95/40
f 93/93/40 64/64/38 63/63/40
f 93/93/40 63/63/40 94/94/40
f 94/94/40 63/63/40 62/62/40
f 94/94/40 62/62/40 96/96/38
f 95/95/40 94/94/40 96/96/38
f 95/95/40 96/96/38 97/97/38
f 98/98/68 99/99/68 100/100/69
f 98/98/68 100/100/69 101/101/69
f 102/102/70 103/103/71 5/5/5
f 102/102/70 5/5/5 4/4/4
f 104/104/72 105/105/73 106/106/73
f 104/104/72 106/106/73 107/107/72
f 105/105/73 108/108/74 109/109/74
f 105/105/73 109/109/74 106/106/73
f 110/110/40 111/111/40 112/112/40
f 110/110/40 112/112/40 113/113/40
f 111/111/40 114/114/40 115/115/40
f 111/111/40 115/115/40 112/112/40
f 109/109/74 108/108/74 116/116/74
f 109/109/74 116/116/74 117/117/74
f 116/116/74 118/118/75 119/119/75
f 116/116/74 119/119/75 117/117/74
f 120/120/76 121/121/77 122/122/78
f 120/120/76 122/122/78 123/123/79
f 121/121/77 110/110/40 113/113/40
f 121/121/77 113/113/40 122/122/78
f 99/99/68 98/98/68 119/119/75
f 99/99/68 119/119/75 118/118/75
f 103/103/71 102/102/70 19/19/17
f 103/103/71 19/19/17 22/22/20
f 124/124/80 120/120/76 123/123/79
f 124/124/80 123/123/79 125/125/81
f 126/126/82 127/127/83 1/1/1
f 126/126/82 1/1/1 3/3/3
f 126/126/82 3/3/3 71/71/47
f 126/126/82 71/71/47 74/74/50
f 128/128/84 124/124/80 125/125/81
f 128/128/84 125/125/81 129/129/85
f 130/130/86 131/131/87 132/132/88
f 130/130/86 132/132/88 133/133/89
f 130/130/86 133/133/89 129/129/85
f 130/130/86 129/129/85 134/134/90
f 135/135/91 128/128/84 129/129/85
f 135/135/91 129/129/85 133/133/89
f 135/135/91 133/133/89 132/132/88
f 135/135/91 132/132/88 136/136/92
f 137/137/93 132/132/88 131/131/87
f 137/137/93 131/131/87 138/138/94
f 137/137/93 138/138/94 79/79/55
f 137/137/93 79/79/55 41/41/32
f 136/136/92 132/132/88 137/137/93
f 136/136/92 137/137/93 139/139/95
f 137/137/93 41/41/32 44/44/35
f 137/137/93 44/44/35 139/139/95
f 140/140/96 141/141/97 142/142/97
f 140/140/96 142/142/97 143/143/96
f 141/141/97 35/35/28 38/38/28
f 141/141/97 38/38/28 142/142/97
f 101/101/69 100/100/69 144/144/69
f 101/101/69 144/144/69 145/145/69
f 144/144/69 140/140/96 143/143/96
f 144/144/69 143/143/96 145/145/69
f 146/146/98 147/147/99 148/148/100
f 146/146/98 148/148/100 149/149/101
f 147/147/99 150/150/102 151/151/103
f 147/147/99 151/151/103 148/148/100
f 152/152/104 153/153/104 154/154/105
f 152/152/104 154/154/105 155/155/104
f 153/153/104 156/156/105 157/157/106
f 153/153/104 157/157/106 154/154/105
f 154/154/105 157/157/106 158/158/104
f 154/154/105 158/158/104 159/159/104
f 155/155/104 154/154/105 159/159/104
f 155/155/104 159/159/104 160/160/107
f 161/161/104 162/162/106 163/163/104
f 161/161/104 163/163/104 164/164/104
f 162/162/106 165/165/106 166/166/106
f 162/162/106 166/166/106 163/163/104
f 163/163/104 166/166/106 167/167/104
f 163/163/104 167/167/104 168/168/104
f 164/164/104 163/163/104 168/168/104
f 164/164/104 168/168/104 169/169/104
f 170/170/108 171/171/109 172/172/110
f 170/170/108 172/172/110 173/173/111
f 171/171/109 146/146/98 149/149/101
f 171/171/109 149/149/101 172/172/110
f 174/174/112 175/175/113 176/176/114
f 174/174/112 176/176/114 177/177/115
f 175/175/113 170/170/108 173/173/111
f 175/175/113 173/173/111 176/176/114
f 8/8/8 174/174/112 177/177/115
f 8/8/8 177/177/115 9/9/9
f 170/170/108 175/175/113 178/178/116
f 170/170/108 178/178/116 179/179/117
f 175/175/113 174/174/112 180/180/118
f 175/175/113 180/180/118 178/178/116
f 146/146/98 171/171/109 181/181/119
f 146/146/98 181/181/119 182/182/120
f 171/171/109 170/170/108 179/179/117
f 171/171/109 179/179/117 181/181/119
f 150/150/102 147/147/99 183/183/121
f 150/150/102 183/183/121 184/184/122
f 147/147/99 146/146/98 182/182/120
f 147/147/99 182/182/120 183/183/121
f 165/165/106 162/162/106 185/185/104
f 165/165/106 185/185/104 186/186/104
f 162/162/106 161/161/104 187/187/106
f 162/162/106 187/187/106 185/185/104
f 185/185/104 187/187/106 188/188/104
f 185/185/104 188/188/104 189/189/104
f 186/186/104 185/185/104 189/189/104
f 186/186/104 189/189/104 190/190/104
f 191/191/123 192/192/124 193/193/125
f 191/191/123 193/193/125 194/194/126
f 195/195/104 196/196/106 197/197/104
f 195/195/104 197/197/104 198/198/104
f 196/196/106 199/199/104 200/200/104
f 196/196/106 200/200/104 197/197/104
f 200/200/104 199/199/104 201/201/127
f 200/200/104 201/201/127 202/202/128
f 201/201/127 203/203/129 204/204/130
f 201/201/127 204/204/130 202/202/128
f 194/194/126 204/204/130 203/203/129
f 194/194/126 203/203/129 191/191/123
f 180/180/118 174/174/112 8/8/8
f 180/180/118 8/8/8 205/205/131
f 8/8/8 7/7/7 206/206/132
f 8/8/8 206/206/132 205/205/131
f 207/207/133 193/193/125 208/208/134
f 207/207/133 208/208/134 209/209/135
f 208/208/134 210/210/136 211/211/137
f 208/208/134 211/211/137 209/209/135
f 210/210/136 208/208/134 212/212/138
f 210/210/136 212/212/138 213/213/139
f 208/208/134 193/193/125 192/192/124
f 208/208/134 192/192/124 212/212/138
f 214/214/140 150/150/102 184/184/122
f 214/214/140 184/184/122 215/215/141
f 214/214/140 215/215/141 211/211/137
f 214/214/140 211/211/137 210/210/136
f 216/216/142 151/151/103 150/150/102
f 216/216/142 150/150/102 214/214/140
f 216/216/142 214/214/140 210/210/136
f 216/216/142 210/210/136 213/213/139
f 217/217/143 80/80/56 83/83/59
f 217/217/143 83/83/59 218/218/144
f 217/217/143 218/218/144 219/219/145
f 217/217/143 219/219/145 220/220/146
f 221/221/40 222/222/40 223/223/40
f 221/221/40 223/223/40 224/224/40
f 222/222/40 225/225/40 226/226/38
f 222/222/40 226/226/38 223/223/40
f 227/227/104 228/228/106 229/229/104
f 227/227/104 229/229/104 230/230/104
f 228/228/106 231/231/104 232/232/106
f 228/228/106 232/232/106 229/229/104
f 115/115/40 114/114/40 233/233/40
f 115/115/40 233/233/40 234/234/40
f 233/233/40 92/92/40 235/235/38
f 233/233/40 235/235/38 234/234/40
f 236/236/147 18/18/16 17/17/15
f 236/236/147 17/17/15 237/237/147
f 236/236/147 237/237/147 104/104/72
f 236/236/147 104/104/72 107/107/72
f 188/188/104 238/238/104 239/239/104
f 188/188/104 239/239/104 240/240/104
f 238/238/104 195/195/104 198/198/104
f 238/238/104 198/198/104 239/239/104
f 241/241/148 242/242/149 243/243/150
f 241/241/148 243/243/150 244/244/151
f 243/243/150 242/242/149 245/245/152
f 243/243/150 245/245/152 246/246/152
f 245/245/152 247/247/153 248/248/154
f 245/245/152 248/248/154 246/246/152
f 248/248/154 247/247/153 249/249/155
f 248/248/154 249/249/155 250/250/156
f 249/249/155 220/220/146 219/219/145
f 249/249/155 219/219/145 250/250/156
f 251/251/104 227/227/104 230/230/104
f 251/251/104 230/230/104 252/252/157
f 251/251/104 252/252/157 190/190/104
f 251/251/104 190/190/104 253/253/105
f 254/254/158 255/255/159 256/256/160
f 254/254/158 256/256/160 257/257/161
f 255/255/159 258/258/162 259/259/163
f 255/255/159 259/259/163 256/256/160
f 259/259/163 258/258/162 260/260/164
f 259/259/163 260/260/164 261/261/165
f 260/260/164 241/241/148 244/244/151
f 260/260/164 244/244/151 261/261/165
f 262/262/166 263/263/167 264/264/168
f 262/262/166 264/264/168 265/265/169
f 263/263/167 266/266/170 267/267/171
f 263/263/167 267/267/171 264/264/168
f 268/268/172 269/269/173 270/270/174
f 268/268/172 270/270/174 271/271/172
f 269/269/173 262/262/166 265/265/169
f 269/269/173 265/265/169 270/270/174
f 53/53/38 52/52/40 272/272/38
f 53/53/38 272/272/38 273/273/39
f 52/52/40 51/51/39 274/274/38
f 52/52/40 274/274/38 272/272/38
f 272/272/38 274/274/38 224/224/40
f 272/272/38 224/224/40 223/223/40
f 273/273/39 272/272/38 223/223/40
f 273/273/39 223/223/40 226/226/38
f 227/227/104 275/275/104 276/276/106
f 227/227/104 276/276/106 228/228/106
f 275/275/104 158/158/104 157/157/106
f 275/275/104 157/157/106 276/276/106
f 276/276/106 157/157/106 156/156/105
f 276/276/106 156/156/105 277/277/104
f 228/228/106 276/276/106 277/277/104
f 228/228/106 277/277/104 231/231/104
f 278/278/175 267/267/171 266/266/170
f 278/278/175 266/266/170 279/279/176
f 278/278/175 279/279/176 254/254/158
f 278/278/175 254/254/158 257/257/161
f 95/95/40 97/97/38 280/280/40
f 95/95/40 280/280/40 281/281/38
f 95/95/40 281/281/38 235/235/38
f 95/95/40 235/235/38 92/92/40
f 24/24/21 23/23/21 282/282/21
f 24/24/21 282/282/21 283/283/21
f 282/282/21 284/284/21 285/285/21
f 282/282/21 285/285/21 283/283/21
f 268/268/172 271/271/172 286/286/177
f 268/268/172 286/286/177 287/287/178
f 286/286/177 288/288/179 289/289/180
f 286/286/177 289/289/180 287/287/178
f 285/285/21 284/284/21 290/290/181
f 285/285/21 290/290/181 291/291/182
f 290/290/181 292/292/183 293/293/184
f 290/290/181 293/293/184 291/291/182
f 293/293/184 292/292/183 294/294/185
f 293/293/184 294/294/185 295/295/186
f 294/294/185 289/289/180 288/288/179
f 294/294/185 288/288/179 295/295/186
f 188/188/104 240/240/104 296/296/104
f 188/188/104 296/296/104 189/189/104
f 296/296/104 253/253/105 190/190/104
f 296/296/104 190/190/104 189/189/104
f 297/297/39 221/221/40 224/224/40
f 297/297/39 224/224/40 298/298/40
f 297/297/39 298/298/40 280/280/40
f 297/297/39 280/280/40 97/97/38
