# File generated by ImageToStl.com - Free Image and 3D model conversion tools

mtllib 無標題.mtl

o obj1
v -0.062676 -0.01702479 3.328403
v -0.030917 -0.0131688 3.19092703
v -0.087965 -0.0171718 3.19927883
v -0.124925 -0.00951 0.58732116
v -0.125634 -0.022464 0.58724308
v -0.149858 -0.01498499 0.61581212
v -0.063229 -0.02713079 3.32834506
v -0.088367 -0.0245278 3.19923472
v -0.032018 -0.0332988 3.19080663
v -0.08008 -0.02141979 3.38001394
v -0.063229 -0.02713079 3.32834506
v -0.062676 -0.01702479 3.328403
v 0.113361 -0.00041005 -0.11371881
v 0.120338 -0.00078304 -0.05207837
v 0.117633 -0.05021004 -0.05237067
v 0.110656 -0.04983805 -0.11401105
v 0.122907 -0.00095804 0.00080168
v 0.120202 -0.05038604 0.00050938
v -0.133471 0.005077 0.48180121
v -0.14266799 0.00972099 0.42665097
v -0.145372 -0.03970601 0.42635667
v -0.135719 -0.035997 0.48155898
v -0.14206301 0.00975299 0.38144618
v -0.144768 -0.03967501 0.38115388
v 0.05987 -0.00588887 2.31836462
v 0.050959 -0.00728085 2.49657941
v 0.048933 -0.04431185 2.49636126
v 0.057675 -0.04599987 2.3181262
v 0.0393 -0.00853284 2.67455387
v 0.037439 -0.04253184 2.6743536
v 0.022495 -0.00953182 2.85207796
v 0.020797 -0.04056783 2.85189366
v -0.000546 -0.01087681 3.02544022
v -0.002015 -0.03772281 3.02528
v 0.077065 -0.00331089 1.9316262
v 0.068426 -0.00447288 2.14011765
v 0.066061 -0.04768188 2.13986349
v 0.074563 -0.04904089 1.93135595
v -0.030917 -0.0131688 3.19092703
v -0.032018 -0.0332988 3.19080663
v -0.137721 -0.0144439 1.90532732
v -0.13899601 -0.01491688 2.12192631
v 0.068426 -0.00447288 2.14011765
v 0.077065 -0.00331089 1.9316262
v -0.13891999 -0.01531187 2.30093193
v 0.05987 -0.00588887 2.31836462
v -0.28670999 0.01618197 0.12772387
v -0.276813 0.01572897 0.15535805
v -0.276335 0.01580697 0.07787266
v -0.290665 0.01640597 0.08275127
v -0.26020101 0.01501697 0.1640563
v -0.25905001 0.01508796 0.06877604
v -0.2579 0.01515996 -0.02650219
v -0.275857 0.01588396 0.00038725
v -0.28745499 0.01632996 0.03534037
v 0.061756 0.00190094 -0.21776932
v 0.00203 0.00445594 -0.24358779
v 0.000419 0.00445995 -0.19316006
v 0.09635 0.00038095 -0.17171371
v -0.058502 0.00701294 -0.24419236
v -0.095513 0.00853894 -0.21460634
v -0.115783 0.00932695 -0.16054517
v -0.001211 0.00445795 -0.13713098
v 0.113361 -0.00041005 -0.11371881
v -0.138604 -0.01570085 2.47995758
v 0.050959 -0.00728085 2.49657941
v -0.13635699 -0.01616384 2.65915132
v 0.0393 -0.00853284 2.67455387
v -0.13049001 -0.01678183 2.83866143
v 0.022495 -0.00953182 2.85207796
v -0.114131 -0.01721481 3.01549077
v -0.000546 -0.01087681 3.02544022
v -0.151154 -0.01773183 2.83684945
v -0.13533901 -0.01862781 3.01722646
v -0.159881 -0.01713684 2.65708733
v -0.163882 -0.01674185 2.47773933
v -0.165362 -0.01645287 2.29861188
v -0.166526 -0.01617788 2.11951208
v -0.166182 -0.0159189 1.90297914
v -0.115783 0.00932695 -0.16054517
v -0.095513 0.00853894 -0.21460634
v -0.097977 -0.04088506 -0.22554469
v -0.118488 -0.04010105 -0.16083741
v -0.058502 0.00701294 -0.24419236
v -0.060837 -0.04240906 -0.2608481
v 0.061756 0.00190094 -0.21776932
v 0.09635 0.00038095 -0.17171371
v 0.093645 -0.04904605 -0.17200601
v 0.059291 -0.04752406 -0.22870773
v 0.00203 0.00445594 -0.24358779
v -0.000305 -0.04496706 -0.26024359
v 0.122907 -0.00095804 0.00080168
v 0.120338 -0.00078304 -0.05207837
v -0.002877 0.00444395 -0.06990129
v -0.022705 0.00519396 -0.00046355
v -0.126091 0.00966995 -0.08772618
v -0.133692 0.00990996 -0.02323109
v 0.112786 -0.05098699 0.73310721
v 0.11549 -0.00157799 0.73339945
v 0.111768 -0.00171598 0.8515774
v 0.10908 -0.05083398 0.85128713
v -0.117756 -0.00358 0.55289656
v -0.11914 -0.028884 0.55274642
v 0.128949 -0.00133203 0.09496886
v 0.1269 -0.00142902 0.24006826
v 0.124196 -0.05085602 0.23977599
v 0.12624399 -0.05076003 0.09467658
v 0.122948 -0.00148301 0.41514206
v 0.120243 -0.05091001 0.41484982
v 0.122948 -0.00148301 0.41514206
v 0.1269 -0.00142902 0.24006826
v -0.140875 0.00981498 0.29259202
v -0.14206301 0.00975299 0.38144618
v 0.128949 -0.00133203 0.09496886
v -0.13967501 0.00987697 0.20276695
v 0.119487 -0.001529 0.56751835
v 0.116782 -0.050956 0.56722611
v 0.116996 -0.00155999 0.67580092
v 0.114291 -0.05098799 0.67550862
v 0.116996 -0.00155999 0.67580092
v 0.119487 -0.001529 0.56751835
v -0.14266799 0.00972099 0.42665097
v -0.133471 0.005077 0.48180121
v 0.11549 -0.00157799 0.73339945
v -0.117756 -0.00358 0.55289656
v -0.110072 -0.0199238 3.19841599
v -0.08008 -0.02141979 3.38001394
v 0.111768 -0.00171598 0.8515774
v -0.124925 -0.00951 0.58732116
v -0.15429901 -0.01521797 0.94923788
v -0.158728 -0.01544994 1.28152657
v -0.129235 -0.01313494 1.28286386
v -0.124906 -0.01245497 0.94975841
v -0.149858 -0.01498499 0.61581212
v 0.104729 -0.00198396 1.07512116
v 0.095562 -0.00233094 1.36619878
v -0.13398699 -0.01382492 1.61351299
v -0.16313601 -0.01567992 1.61154509
v 0.086226 -0.00268591 1.66267765
v 0.095562 -0.00233094 1.36619878
v 0.086226 -0.00268591 1.66267765
v 0.08365 -0.04975891 1.66239727
v 0.092946 -0.05015194 1.36591458
v 0.104729 -0.00198396 1.07512116
v 0.102072 -0.05053796 1.0748328
v -0.139167 -0.01982287 2.30090404
v -0.13926101 -0.01975988 2.12189841
v 0.066061 -0.04768188 2.13986349
v 0.057675 -0.04599987 2.3181262
v -0.138014 -0.0197919 1.90529525
v 0.074563 -0.04904089 1.93135595
v -0.29016 -0.03309704 0.0350461
v -0.278561 -0.03354304 9.501E-05
v -0.27904001 -0.03362103 0.07758039
v -0.29337001 -0.03302203 0.082459
v -0.26060501 -0.03426804 -0.02679449
v -0.26175499 -0.03433903 0.06848377
v -0.262905 -0.03441103 0.163764
v -0.27951801 -0.03369803 0.15506577
v -0.28941399 -0.03324503 0.1274316
v 0.110656 -0.04983805 -0.11401105
v -0.003916 -0.04496905 -0.13742322
v -0.002286 -0.04496706 -0.1934523
v 0.093645 -0.04904605 -0.17200601
v -0.118488 -0.04010105 -0.16083741
v -0.097977 -0.04088506 -0.22554469
v -0.060837 -0.04240906 -0.2608481
v -0.000305 -0.04496706 -0.26024359
v 0.059291 -0.04752406 -0.22870773
v -0.136572 -0.02009284 2.65912724
v -0.138834 -0.01991385 2.47993135
v 0.048933 -0.04431185 2.49636126
v 0.037439 -0.04253184 2.6743536
v -0.114383 -0.02181681 3.01546264
v -0.13068999 -0.02042483 2.83863926
v 0.020797 -0.04056783 2.85189366
v -0.002015 -0.03772281 3.02528
v -0.151154 -0.01773183 2.83684945
v -0.159881 -0.01713684 2.65708733
v -0.13533901 -0.01862781 3.01722646
v -0.163882 -0.01674185 2.47773933
v -0.165362 -0.01645287 2.29861188
v -0.166526 -0.01617788 2.11951208
v -0.166182 -0.0159189 1.90297914
v -0.005581 -0.04498405 -0.07019359
v -0.128795 -0.03975705 -0.08801842
v 0.117633 -0.05021004 -0.05237067
v 0.120202 -0.05038604 0.00050938
v -0.025409 -0.04423404 -0.00075585
v -0.136397 -0.03951804 -0.02352339
v 0.112786 -0.05098699 0.73310721
v 0.10908 -0.05083398 0.85128713
v -0.125634 -0.022464 0.58724308
v -0.11914 -0.028884 0.55274642
v 0.12624399 -0.05076003 0.09467658
v 0.124196 -0.05085602 0.23977599
v -0.14358 -0.03961302 0.29229772
v -0.142379 -0.03955003 0.20247468
v 0.120243 -0.05091001 0.41484982
v -0.144768 -0.03967501 0.38115388
v 0.116782 -0.050956 0.56722611
v -0.145372 -0.03970601 0.42635667
v 0.114291 -0.05098799 0.67550862
v -0.135719 -0.035997 0.48155898
v -0.110072 -0.0199238 3.19841599
v -0.08008 -0.02141979 3.38001394
v -0.149858 -0.01498499 0.61581212
v -0.12534299 -0.02044697 0.94971234
v -0.15429901 -0.01521797 0.94923788
v -0.12962499 -0.02024294 1.28282189
v -0.158728 -0.01544994 1.28152657
v 0.102072 -0.05053796 1.0748328
v 0.092946 -0.05015194 1.36591458
v -0.134325 -0.01998892 1.61347699
v -0.16313601 -0.01567992 1.61154509
v 0.08365 -0.04975891 1.66239727
v -0.126091 0.00966995 -0.08772618
v -0.128795 -0.03975705 -0.08801842
v -0.136397 -0.03951804 -0.02352339
v -0.133692 0.00990996 -0.02323109
v -0.15967301 0.01097096 0.0057283
v -0.17232101 0.01153396 -0.01745361
v -0.211573 0.01313296 0.02906442
v -0.210116 0.01293997 0.13380966
v -0.18471301 0.01209296 -0.04585451
v -0.21393199 0.01334995 -0.0634011
v -0.21282101 -0.03648803 0.13351735
v -0.214277 -0.03629404 0.02877212
v -0.175026 -0.03789304 -0.01774794
v -0.162378 -0.03845704 0.00543606
v -0.216637 -0.03607804 -0.06369543
v -0.187417 -0.03733404 -0.04614681
v 0.126697 -0.00115804 0.0325157
v -0.13903201 0.00991097 0.15466139
v -0.142362 0.01007897 0.13273659
v 0.123993 -0.05058604 0.0322234
v 0.126697 -0.00115804 0.0325157
v 0.123993 -0.05058604 0.0322234
v -0.141736 -0.03951703 0.15436912
v -0.14506701 -0.03934803 0.13244233
v -0.21393199 0.01334995 -0.0634011
v -0.18471301 0.01209296 -0.04585451
v -0.187417 -0.03733404 -0.04614681
v -0.216637 -0.03607804 -0.06369543
v -0.17232101 0.01153396 -0.01745361
v -0.175026 -0.03789304 -0.01774794
v -0.15967301 0.01097096 0.0057283
v -0.162378 -0.03845704 0.00543606
v -0.145842 0.01038596 0.00586241
v -0.148546 -0.03904104 0.00557023
v -0.190577 -0.03741403 0.12250891
v -0.148546 -0.03904104 0.00557023
v -0.171691 -0.03820603 0.11851716
v -0.28745499 0.01632996 0.03534037
v -0.275857 0.01588396 0.00038725
v -0.278561 -0.03354304 9.501E-05
v -0.29016 -0.03309704 0.0350461
v -0.2579 0.01515996 -0.02650219
v -0.26060501 -0.03426804 -0.02679449
v -0.235616 0.01424796 -0.04972619
v -0.23832101 -0.03517905 -0.05002052
v -0.26020101 0.01501697 0.1640563
v -0.276813 0.01572897 0.15535805
v -0.27951801 -0.03369803 0.15506577
v -0.262905 -0.03441103 0.163764
v -0.28670999 0.01618197 0.12772387
v -0.28941399 -0.03324503 0.1274316
v -0.210116 0.01293997 0.13380966
v -0.23609699 0.01401397 0.15221706
v -0.238802 -0.03541403 0.15192479
v -0.21282101 -0.03648803 0.13351735
v -0.23585699 0.01413096 0.05124545
v -0.235616 0.01424796 -0.04972619
v -0.23609699 0.01401397 0.15221706
v -0.238802 -0.03541403 0.15192479
v -0.238561 -0.03529704 0.05095318
v -0.23832101 -0.03517905 -0.05002052
v -0.29337001 -0.03302203 0.082459
v -0.290665 0.01640597 0.08275127
v -0.16898701 0.01122097 0.11880943
v -0.153082 0.01054597 0.12145194
v -0.140875 0.00981498 0.29259202
v -0.14358 -0.03961302 0.29229772
v -0.13967501 0.00987697 0.20276695
v -0.142379 -0.03955003 0.20247468
v -0.190577 -0.03741403 0.12250891
v -0.18787199 0.01201397 0.12280121
v -0.171691 -0.03820603 0.11851716
v -0.16898701 0.01122097 0.11880943
v -0.13903201 0.00991097 0.15466139
v -0.141736 -0.03951703 0.15436912
v -0.142362 0.01007897 0.13273659
v -0.14506701 -0.03934803 0.13244233
v -0.153082 0.01054597 0.12145194
v -0.15578599 -0.03888103 0.12115967
v -0.15578599 -0.03888103 0.12115967
v -0.145842 0.01038596 0.00586241
v -0.18787199 0.01201397 0.12280121
vn -0.13743 0.99021 0.02461
vn -0.05784 0.99832 0.00451
vn -0.07749 0.99694 0.01032
vn -0.94644 0.06171 -0.31693
vn -0.94787 0.04701 -0.31518
vn -0.75606 0.04532 -0.65293
vn -0.22116 -0.97502 0.02074
vn -0.16366 -0.98652 0.00077
vn -0.14211 -0.98985 0.00202
vn 0.94758 -0.05366 0.31497
vn 0.97677 -0.05313 0.20761
vn 0.97645 -0.05702 0.20808
vn 0.97788 -0.05232 -0.20251
vn 0.99483 -0.05394 -0.08603
vn 0.99483 -0.05397 -0.08597
vn 0.97789 -0.05235 -0.20244
vn 0.99628 -0.05402 -0.06718
vn 0.99628 -0.05408 -0.0671
vn -0.97966 0.05246 0.19371
vn -0.99441 0.05487 0.09024
vn -0.99453 0.05294 0.09004
vn -0.9797 0.05248 0.19347
vn -0.99841 0.05472 -0.01332
vn -0.99841 0.05471 -0.01331
vn 0.99732 -0.05486 0.04843
vn 0.99686 -0.05488 0.05714
vn 0.99686 -0.05488 0.0571
vn 0.99732 -0.05486 0.04843
vn 0.99542 -0.05492 0.07829
vn 0.99543 -0.0549 0.07818
vn 0.99239 -0.05502 0.11019
vn 0.9924 -0.05498 0.11006
vn 0.98712 -0.055 0.15023
vn 0.98717 -0.05489 0.14994
vn 0.99783 -0.05482 0.03639
vn 0.99753 -0.05486 0.04389
vn 0.99754 -0.05486 0.04364
vn 0.99783 -0.05482 0.03638
vn 0.98136 -0.05523 0.18406
vn 0.98145 -0.05459 0.1838
vn -0.05179 0.99866 0.00218
vn -0.05019 0.99873 0.00419
vn -0.05066 0.99871 0.00272
vn -0.05133 0.99868 0.0023
vn -0.04743 0.99886 0.00498
vn -0.04818 0.99883 0.00285
vn 0.0422 0.99911 0.00127
vn 0.04218 0.99911 0.00126
vn 0.04221 0.99911 0.00126
vn 0.04219 0.99911 0.00126
vn 0.04218 0.99911 0.00125
vn 0.0422 0.99911 0.00126
vn 0.04219 0.99911 0.00126
vn 0.04216 0.99911 0.00125
vn 0.04221 0.99911 0.00126
vn 0.0422 0.99911 0.00128
vn 0.04219 0.99911 0.00127
vn 0.0422 0.99911 0.00127
vn 0.0422 0.99911 0.00126
vn 0.04219 0.99911 0.00125
vn 0.0422 0.99911 0.00126
vn 0.0422 0.99911 0.00126
vn 0.0422 0.99911 0.00126
vn 0.04219 0.99911 0.00126
vn -0.04434 0.99901 0.0047
vn -0.04579 0.99895 0.00285
vn -0.04447 0.99901 0.00283
vn -0.04485 0.99899 0.0034
vn -0.04901 0.9988 0.00231
vn -0.04717 0.99888 0.00472
vn -0.05674 0.99839 0.00073
vn -0.0535 0.99856 0.00427
vn -0.04817 0.99882 0.00566
vn -0.07102 0.99744 0.00857
vn -0.04229 0.9991 0.00379
vn -0.04199 0.99911 0.00276
vn -0.04335 0.99906 0.0022
vn -0.04708 0.99889 0.00249
vn -0.05403 0.99854 0.00156
vn -0.97011 0.05127 -0.23719
vn -0.80613 0.0854 -0.58554
vn -0.78117 0.08771 -0.61813
vn -0.96677 0.05419 -0.24986
vn -0.29218 0.15182 -0.94423
vn -0.262 0.14709 -0.95379
vn 0.60889 0.02905 -0.79272
vn 0.88143 -0.04549 -0.47012
vn 0.87909 -0.04289 -0.47473
vn 0.5781 0.04882 -0.8145
vn 0.22878 0.12628 -0.96525
vn 0.21713 0.13602 -0.96662
vn 0.0422 0.99911 0.00126
vn 0.0422 0.99911 0.00126
vn 0.0422 0.99911 0.00126
vn 0.0422 0.99911 0.00126
vn 0.04219 0.99911 0.00126
vn 0.04219 0.99911 0.00126
vn 0.99803 -0.05477 0.03049
vn 0.99803 -0.05477 0.03051
vn 0.998 -0.0548 0.03136
vn 0.998 -0.0548 0.03136
vn -0.96329 0.0908 0.25263
vn -0.96766 0.01465 0.25183
vn 0.99847 -0.0546 0.00878
vn 0.99832 -0.05473 0.01907
vn 0.99832 -0.05473 0.01905
vn 0.99847 -0.05457 0.00866
vn 0.99824 -0.05476 0.02259
vn 0.99824 -0.05476 0.02259
vn 0.0422 0.99911 0.00126
vn 0.0422 0.99911 0.00126
vn 0.0422 0.99911 0.00126
vn 0.0422 0.99911 0.00126
vn 0.0422 0.99911 0.00126
vn 0.0422 0.99911 0.00126
vn 0.99824 -0.05477 0.0228
vn 0.99824 -0.05477 0.0228
vn 0.99822 -0.05475 0.02356
vn 0.99822 -0.05475 0.02355
vn -0.0161 0.99481 0.10046
vn 0.02974 0.99914 0.02882
vn 0.04078 0.99907 -0.01416
vn 0.02645 0.99951 -0.01671
vn -0.05426 0.99423 0.09255
vn -0.02931 0.9995 -0.0116
vn -0.12291 0.99209 0.02533
vn -0.14333 0.98945 0.02111
vn -0.04361 0.99898 0.01203
vn -0.0878 0.99574 -0.02818
vn -0.10307 0.99467 0.0017
vn -0.07889 0.99688 0.00158
vn -0.05196 0.99865 0.00238
vn -0.05247 0.99862 -0
vn -0.12995 0.99149 -0.00806
vn -0.04244 0.9991 0.00251
vn -0.04479 0.99899 0.00263
vn -0.05208 0.99864 0.0018
vn -0.06487 0.99789 0.0022
vn -0.04876 0.99881 0.00253
vn 0.99801 -0.05478 0.03136
vn 0.99796 -0.05481 0.03261
vn 0.99796 -0.05481 0.03261
vn 0.99801 -0.05478 0.03136
vn 0.998 -0.0548 0.03136
vn 0.998 -0.0548 0.03136
vn -0.13143 -0.99132 0.0025
vn -0.13426 -0.99094 0.00151
vn -0.13525 -0.99081 9E-05
vn -0.13278 -0.99115 0.0001
vn -0.13613 -0.99069 -9E-05
vn -0.13538 -0.99079 -4E-05
vn -0.04223 -0.99911 -0.00127
vn -0.04222 -0.99911 -0.00126
vn -0.04218 -0.99911 -0.00127
vn -0.0422 -0.99911 -0.00126
vn -0.04218 -0.99911 -0.00126
vn -0.04219 -0.99911 -0.00126
vn -0.04221 -0.99911 -0.00126
vn -0.04222 -0.99911 -0.00125
vn -0.04229 -0.9991 -0.00123
vn -0.0422 -0.99911 -0.00126
vn -0.0422 -0.99911 -0.00126
vn -0.0422 -0.99911 -0.00126
vn -0.0422 -0.99911 -0.00126
vn -0.0422 -0.99911 -0.00126
vn -0.04219 -0.99911 -0.00126
vn -0.0422 -0.99911 -0.00126
vn -0.04221 -0.99911 -0.00125
vn -0.04221 -0.99911 -0.00124
vn -0.12865 -0.99169 0.00027
vn -0.12901 -0.99164 0.00179
vn -0.13015 -0.99149 0.00029
vn -0.12888 -0.99166 0.00116
vn -0.14236 -0.98981 0.00115
vn -0.13213 -0.99123 -0.00143
vn -0.13117 -0.99136 0.00198
vn -0.13593 -0.99071 0.00254
vn -0.13317 -0.99109 0.00278
vn -0.12624 -0.992 0.00147
vn -0.15472 -0.98792 0.00874
vn -0.12607 -0.99202 9E-05
vn -0.12769 -0.99181 -0.00043
vn -0.13111 -0.99137 -0.00029
vn -0.13813 -0.99041 -0.00063
vn -0.0422 -0.99911 -0.00126
vn -0.0422 -0.99911 -0.00126
vn -0.0422 -0.99911 -0.00127
vn -0.0422 -0.99911 -0.00126
vn -0.0422 -0.99911 -0.00126
vn -0.0422 -0.99911 -0.00126
vn -0.13648 -0.98639 0.09173
vn -0.1255 -0.99202 0.01179
vn -0.15791 -0.98708 -0.02722
vn -0.11155 -0.99352 -0.02164
vn -0.0422 -0.99911 -0.00126
vn -0.0422 -0.99911 -0.00126
vn -0.0422 -0.99911 -0.00126
vn -0.0422 -0.99911 -0.00126
vn -0.0422 -0.99911 -0.00126
vn -0.0422 -0.99911 -0.00126
vn -0.05664 -0.99806 0.02569
vn -0.04815 -0.99869 -0.01745
vn -0.10262 -0.98996 0.09717
vn -0.05965 -0.99803 -0.01969
vn -0.20414 -0.97877 0.01822
vn -0.22543 -0.974 0.02228
vn -0.22318 -0.97463 -0.01685
vn -0.13562 -0.99076 0.00094
vn -0.18922 -0.98193 0.00341
vn -0.13626 -0.99067 -0.001
vn -0.16245 -0.98671 -0.00159
vn -0.12507 -0.99215 0.00132
vn -0.12921 -0.99162 0.00024
vn -0.13626 -0.99067 -0.00077
vn -0.14904 -0.98883 -0.00034
vn -0.13318 -0.99109 -0.00017
vn -0.98999 0.05493 -0.13001
vn -0.98997 0.05492 -0.13015
vn -0.98058 0.05473 -0.18834
vn -0.98036 0.05528 -0.18933
vn 0.04221 0.99911 0.00126
vn 0.0422 0.99911 0.00126
vn 0.0422 0.99911 0.00126
vn 0.0422 0.99911 0.00126
vn 0.04224 0.99911 0.00123
vn 0.04219 0.99911 0.00126
vn -0.0422 -0.99911 -0.00126
vn -0.04219 -0.99911 -0.00126
vn -0.0422 -0.99911 -0.00126
vn -0.0422 -0.99911 -0.00126
vn -0.0422 -0.99911 -0.00126
vn -0.04219 -0.99911 -0.00126
vn 0.0422 0.99911 0.00126
vn 0.0422 0.99911 0.00126
vn 0.04219 0.99911 0.00126
vn 0.99717 -0.05414 -0.05219
vn 0.99717 -0.05411 -0.05223
vn -0.0422 -0.99911 -0.00126
vn -0.0422 -0.99911 -0.00126
vn -0.04221 -0.99911 -0.00127
vn 0.03983 0.00447 -0.9992
vn 0.70337 -0.03437 -0.71
vn 0.70253 -0.03514 -0.71078
vn 0.0365 0.00412 -0.99933
vn 0.8979 -0.04651 -0.43773
vn 0.89779 -0.04652 -0.43796
vn 0.54441 -0.02426 -0.83847
vn 0.54766 -0.025 -0.83633
vn -0.60429 0.03765 -0.79588
vn -0.60397 0.03669 -0.79616
vn -0.0422 -0.99911 -0.00126
vn -0.0425 -0.9991 -0.00138
vn -0.04218 -0.99911 -0.00125
vn -0.98253 0.05489 -0.17781
vn -0.89462 0.05159 -0.44384
vn -0.89393 0.0515 -0.44524
vn -0.98224 0.05488 -0.1794
vn -0.77529 0.04618 -0.62991
vn -0.77498 0.04616 -0.63029
vn -0.63425 0.03928 -0.77213
vn -0.63407 0.03928 -0.77228
vn 0.03789 -0.00815 0.99925
vn -0.75139 0.03722 0.6588
vn -0.75205 0.03725 0.65805
vn 0.03507 -0.0073 0.99936
vn -0.98179 0.05245 0.18259
vn -0.98173 0.05255 0.18288
vn 0.51487 -0.03322 0.85663
vn 0.51211 -0.03312 0.85828
vn 0.51198 -0.03312 0.85836
vn 0.51497 -0.03321 0.85657
vn 0.04219 0.99911 0.00126
vn 0.04219 0.99911 0.00126
vn 0.04219 0.99911 0.00126
vn -0.0422 -0.99911 -0.00126
vn -0.04219 -0.99911 -0.00126
vn -0.0422 -0.99911 -0.00126
vn -0.99849 0.0546 0.00639
vn -0.99849 0.05459 0.0068
vn 0.04221 0.99911 0.00126
vn 0.04219 0.99911 0.00126
vn -0.99841 0.05472 -0.01331
vn -0.99841 0.05472 -0.01331
vn -0.99841 0.0547 -0.0133
vn -0.99841 0.0547 -0.01331
vn 0.33301 -0.02382 0.94262
vn 0.33241 -0.02379 0.94284
vn 0.03012 -0.00746 0.99952
vn 0.02867 -0.00747 0.99956
vn -0.99848 0.05419 0.00984
vn -0.99848 0.05437 0.00924
vn -0.89111 0.04616 0.45143
vn -0.89155 0.04618 0.45056
vn -0.44539 0.01906 0.89513
vn -0.4436 0.01928 0.89602
vn -0.0422 -0.99911 -0.00126
vn 0.04216 0.99911 0.00126
vn 0.04222 0.99911 0.00126
vt 0.74208 0.87544
vt 0.74988 0.8542
vt 0.73386 0.85646
vt 0.91115 0.98596
vt 0.90727 0.98596
vt 0.90921 0.99414
vt 0.8077 0.98607
vt 0.81577 0.96703
vt 0.79974 0.9649
vt 0.90921 0.16951
vt 0.9077 0.17869
vt 0.91073 0.17869
vt 0.91662 0.70307
vt 0.91662 0.69359
vt 0.9018 0.69359
vt 0.9018 0.70307
vt 0.91662 0.68559
vt 0.9018 0.68559
vt 0.91537 0.9688
vt 0.91662 0.96008
vt 0.9018 0.96008
vt 0.90306 0.9688
vt 0.91662 0.95327
vt 0.9018 0.95327
vt 0.91522 0.33573
vt 0.91476 0.30876
vt 0.90366 0.30876
vt 0.9032 0.33573
vt 0.91431 0.28174
vt 0.90412 0.28174
vt 0.91386 0.25457
vt 0.90456 0.25457
vt 0.91324 0.22764
vt 0.90519 0.22764
vt 0.91606 0.3942
vt 0.91569 0.36269
vt 0.90274 0.36269
vt 0.90236 0.3942
vt 0.91223 0.20126
vt 0.90619 0.20126
vt 0.70881 0.66275
vt 0.71031 0.69534
vt 0.76889 0.69447
vt 0.76954 0.66297
vt 0.71186 0.72225
vt 0.76799 0.72142
vt 0.65237 0.39682
vt 0.65535 0.40083
vt 0.65495 0.38917
vt 0.65094 0.39011
vt 0.6601 0.4019
vt 0.65975 0.38755
vt 0.65941 0.3732
vt 0.65453 0.3775
vt 0.65151 0.38293
vt 0.74817 0.33981
vt 0.73115 0.33679
vt 0.73105 0.3444
vt 0.75824 0.34624
vt 0.71408 0.33757
vt 0.70386 0.34256
vt 0.69853 0.35098
vt 0.73099 0.35285
vt 0.76345 0.35472
vt 0.71348 0.74917
vt 0.767 0.74837
vt 0.71564 0.77607
vt 0.76524 0.77534
vt 0.71882 0.80296
vt 0.76202 0.80233
vt 0.72493 0.82927
vt 0.75702 0.82879
vt 0.71299 0.80305
vt 0.71897 0.8299
vt 0.709 0.77617
vt 0.70635 0.74927
vt 0.7044 0.72236
vt 0.70254 0.69545
vt 0.70078 0.66289
vt 0.91662 0.78069
vt 0.91662 0.77071
vt 0.9018 0.77071
vt 0.9018 0.78069
vt 0.91662 0.75934
vt 0.9018 0.75934
vt 0.91662 0.72497
vt 0.91662 0.71302
vt 0.9018 0.71302
vt 0.9018 0.72497
vt 0.91662 0.74225
vt 0.9018 0.74225
vt 0.76694 0.37181
vt 0.76585 0.3639
vt 0.73099 0.36299
vt 0.72589 0.37372
vt 0.69613 0.36209
vt 0.69444 0.3719
vt 0.90181 0.57503
vt 0.91662 0.57503
vt 0.91657 0.5572
vt 0.90185 0.5572
vt 0.913 0.98042
vt 0.90542 0.98042
vt 0.91662 0.67128
vt 0.91662 0.64942
vt 0.9018 0.64942
vt 0.9018 0.67128
vt 0.91662 0.62302
vt 0.9018 0.62302
vt 0.76987 0.43415
vt 0.76975 0.40775
vt 0.69464 0.41952
vt 0.69493 0.4329
vt 0.76931 0.38589
vt 0.69434 0.40598
vt 0.91662 0.60005
vt 0.9018 0.60005
vt 0.91662 0.58372
vt 0.9018 0.58372
vt 0.77004 0.47345
vt 0.76996 0.45712
vt 0.69507 0.43971
vt 0.6981 0.44798
vt 0.77008 0.48214
vt 0.703 0.45878
vt 0.72759 0.85673
vt 0.73751 0.88354
vt 0.77004 0.49997
vt 0.70117 0.46433
vt 0.69593 0.51928
vt 0.69754 0.56932
vt 0.70587 0.569
vt 0.70424 0.51884
vt 0.69423 0.46908
vt 0.76998 0.5337
vt 0.7699 0.57763
vt 0.70737 0.6188
vt 0.69913 0.61901
vt 0.76981 0.62237
vt 0.91638 0.47954
vt 0.91627 0.4348
vt 0.90216 0.4348
vt 0.90205 0.47954
vt 0.91649 0.52346
vt 0.90193 0.52346
vt 0.83676 0.83266
vt 0.83811 0.80573
vt 0.77953 0.80531
vt 0.78062 0.83225
vt 0.83936 0.77313
vt 0.77864 0.77381
vt 0.89442 0.49288
vt 0.89135 0.48747
vt 0.89103 0.49914
vt 0.89504 0.50005
vt 0.88645 0.4832
vt 0.88621 0.49756
vt 0.88598 0.51191
vt 0.89071 0.51081
vt 0.89366 0.50677
vt 0.78227 0.46553
vt 0.81471 0.46341
vt 0.81458 0.45496
vt 0.78741 0.45701
vt 0.84716 0.46129
vt 0.84176 0.45291
vt 0.8315 0.448
vt 0.81443 0.44735
vt 0.79743 0.4505
vt 0.83338 0.88651
vt 0.83534 0.85959
vt 0.78182 0.8592
vt 0.78378 0.88615
vt 0.82449 0.93978
vt 0.8304 0.91342
vt 0.7872 0.91311
vt 0.7924 0.93954
vt 0.83624 0.91347
vt 0.84002 0.88656
vt 0.83046 0.94036
vt 0.84248 0.85964
vt 0.84422 0.83271
vt 0.84588 0.80579
vt 0.8474 0.77321
vt 0.81479 0.47355
vt 0.84964 0.47238
vt 0.77994 0.47472
vt 0.7789 0.48265
vt 0.81997 0.48424
vt 0.8514 0.48217
vt 0.77668 0.59299
vt 0.77691 0.61082
vt 0.84552 0.57467
vt 0.84359 0.56915
vt 0.77665 0.49674
vt 0.77637 0.5186
vt 0.85157 0.52979
vt 0.85176 0.51626
vt 0.77646 0.545
vt 0.85138 0.54318
vt 0.77654 0.56797
vt 0.85129 0.54999
vt 0.7766 0.5843
vt 0.84836 0.55829
vt 0.82205 0.96725
vt 0.81232 0.99414
vt 0.8525 0.57935
vt 0.84285 0.6292
vt 0.85117 0.62957
vt 0.8416 0.67937
vt 0.84993 0.67962
vt 0.77723 0.64455
vt 0.77764 0.68848
vt 0.84048 0.72918
vt 0.84871 0.72933
vt 0.77806 0.73322
vt 0.91662 0.79204
vt 0.9018 0.79204
vt 0.9018 0.802
vt 0.91662 0.802
vt 0.68732 0.37663
vt 0.6836 0.37332
vt 0.67286 0.38089
vt 0.674 0.39663
vt 0.6799 0.36923
vt 0.67154 0.36701
vt 0.87203 0.50675
vt 0.87306 0.491
vt 0.86226 0.48352
vt 0.85856 0.48685
vt 0.87427 0.47711
vt 0.86592 0.4794
vt 0.76823 0.37653
vt 0.69419 0.39874
vt 0.6931 0.39549
vt 0.9018 0.6807
vt 0.91662 0.6807
vt 0.77765 0.48737
vt 0.85186 0.50901
vt 0.85293 0.50575
vt 0.91662 0.83063
vt 0.91662 0.82198
vt 0.9018 0.82198
vt 0.9018 0.83063
vt 0.91662 0.81646
vt 0.9018 0.81646
vt 0.91662 0.81148
vt 0.9018 0.81148
vt 0.91662 0.80758
vt 0.9018 0.80758
vt 0.86582 0.50482
vt 0.85466 0.4867
vt 0.86052 0.50398
vt 0.91662 0.85702
vt 0.91662 0.8508
vt 0.9018 0.8508
vt 0.9018 0.85702
vt 0.91662 0.8443
vt 0.9018 0.8443
vt 0.91662 0.83709
vt 0.9018 0.83709
vt 0.91662 0.88094
vt 0.91662 0.87608
vt 0.9018 0.87608
vt 0.9018 0.88094
vt 0.91662 0.87108
vt 0.9018 0.87108
vt 0.91662 0.89583
vt 0.91662 0.88798
vt 0.9018 0.88798
vt 0.9018 0.89583
vt 0.66617 0.38458
vt 0.66553 0.36938
vt 0.66681 0.39977
vt 0.87925 0.50983
vt 0.87977 0.49464
vt 0.8803 0.47944
vt 0.9018 0.86422
vt 0.91662 0.86422
vt 0.68549 0.39378
vt 0.68999 0.39395
vt 0.91662 0.93988
vt 0.9018 0.93988
vt 0.91662 0.92635
vt 0.9018 0.92635
vt 0.9018 0.90233
vt 0.91662 0.90233
vt 0.9018 0.9077
vt 0.91662 0.9077
vt 0.91662 0.9191
vt 0.9018 0.9191
vt 0.91662 0.91567
vt 0.9018 0.91567
vt 0.91662 0.91221
vt 0.9018 0.91221
vt 0.85602 0.50419
vt 0.69122 0.37645
vt 0.6802 0.39465
usemtl mat0
f 1/1/1 2/2/2 3/3/3
f 4/4/4 5/5/5 6/6/6
f 7/7/7 8/8/8 9/9/9
f 10/10/10 11/11/11 12/12/12
f 13/13/13 14/14/14 15/15/15
f 13/13/13 15/15/15 16/16/16
f 14/14/14 17/17/17 18/18/18
f 14/14/14 18/18/18 15/15/15
f 19/19/19 20/20/20 21/21/21
f 19/19/19 21/21/21 22/22/22
f 20/20/20 23/23/23 24/24/24
f 20/20/20 24/24/24 21/21/21
f 25/25/25 26/26/26 27/27/27
f 25/25/25 27/27/27 28/28/28
f 26/26/26 29/29/29 30/30/30
f 26/26/26 30/30/30 27/27/27
f 30/30/30 29/29/29 31/31/31
f 30/30/30 31/31/31 32/32/32
f 31/31/31 33/33/33 34/34/34
f 31/31/31 34/34/34 32/32/32
f 35/35/35 36/36/36 37/37/37
f 35/35/35 37/37/37 38/38/38
f 36/36/36 25/25/25 28/28/28
f 36/36/36 28/28/28 37/37/37
f 34/34/34 33/33/33 39/39/39
f 34/34/34 39/39/39 40/40/40
f 39/39/39 12/12/12 11/11/11
f 39/39/39 11/11/11 40/40/40
f 41/41/41 42/42/42 43/43/43
f 41/41/41 43/43/43 44/44/44
f 42/42/42 45/45/45 46/46/46
f 42/42/42 46/46/46 43/43/43
f 47/47/47 48/48/48 49/49/49
f 47/47/47 49/49/49 50/50/50
f 48/48/48 51/51/51 52/52/52
f 48/48/48 52/52/52 49/49/49
f 49/49/49 52/52/52 53/53/53
f 49/49/49 53/53/53 54/54/54
f 50/50/50 49/49/49 54/54/54
f 50/50/50 54/54/54 55/55/55
f 56/56/56 57/57/57 58/58/58
f 56/56/56 58/58/58 59/59/59
f 57/57/57 60/60/60 61/61/61
f 57/57/57 61/61/61 58/58/58
f 58/58/58 61/61/61 62/62/62
f 58/58/58 62/62/62 63/63/63
f 59/59/59 58/58/58 63/63/63
f 59/59/59 63/63/63 64/64/64
f 46/46/46 45/45/45 65/65/65
f 46/46/46 65/65/65 66/66/66
f 65/65/65 67/67/67 68/68/68
f 65/65/65 68/68/68 66/66/66
f 68/68/68 67/67/67 69/69/69
f 68/68/68 69/69/69 70/70/70
f 69/69/69 71/71/71 72/72/72
f 69/69/69 72/72/72 70/70/70
f 72/72/72 71/71/71 3/3/3
f 72/72/72 3/3/3 2/2/2
f 71/71/71 69/69/69 73/73/73
f 71/71/71 73/73/73 74/74/74
f 69/69/69 67/67/67 75/75/75
f 69/69/69 75/75/75 73/73/73
f 75/75/75 67/67/67 65/65/65
f 75/75/75 65/65/65 76/76/76
f 65/65/65 45/45/45 77/77/77
f 65/65/65 77/77/77 76/76/76
f 77/77/77 45/45/45 42/42/42
f 77/77/77 42/42/42 78/78/78
f 42/42/42 41/41/41 79/79/79
f 42/42/42 79/79/79 78/78/78
f 80/80/80 81/81/81 82/82/82
f 80/80/80 82/82/82 83/83/83
f 81/81/81 84/84/84 85/85/85
f 81/81/81 85/85/85 82/82/82
f 86/86/86 87/87/87 88/88/88
f 86/86/86 88/88/88 89/89/89
f 87/87/87 13/13/13 16/16/16
f 87/87/87 16/16/16 88/88/88
f 85/85/85 84/84/84 90/90/90
f 85/85/85 90/90/90 91/91/91
f 90/90/90 86/86/86 89/89/89
f 90/90/90 89/89/89 91/91/91
f 92/92/92 93/93/93 94/94/94
f 92/92/92 94/94/94 95/95/95
f 93/93/93 64/64/64 63/63/63
f 93/93/93 63/63/63 94/94/94
f 94/94/94 63/63/63 62/62/62
f 94/94/94 62/62/62 96/96/96
f 95/95/95 94/94/94 96/96/96
f 95/95/95 96/96/96 97/97/97
f 98/98/98 99/99/99 100/100/100
f 98/98/98 100/100/100 101/101/101
f 102/102/102 103/103/103 5/5/5
f 102/102/102 5/5/5 4/4/4
f 104/104/104 105/105/105 106/106/106
f 104/104/104 106/106/106 107/107/107
f 105/105/105 108/108/108 109/109/109
f 105/105/105 109/109/109 106/106/106
f 110/110/110 111/111/111 112/112/112
f 110/110/110 112/112/112 113/113/113
f 111/111/111 114/114/114 115/115/115
f 111/111/111 115/115/115 112/112/112
f 109/109/109 108/108/108 116/116/116
f 109/109/109 116/116/116 117/117/117
f 116/116/116 118/118/118 119/119/119
f 116/116/116 119/119/119 117/117/117
f 120/120/120 121/121/121 122/122/122
f 120/120/120 122/122/122 123/123/123
f 121/121/121 110/110/110 113/113/113
f 121/121/121 113/113/113 122/122/122
f 99/99/99 98/98/98 119/119/119
f 99/99/99 119/119/119 118/118/118
f 103/103/103 102/102/102 19/19/19
f 103/103/103 19/19/19 22/22/22
f 124/124/124 120/120/120 123/123/123
f 124/124/124 123/123/123 125/125/125
f 126/126/126 127/127/127 1/1/1
f 126/126/126 1/1/1 3/3/3
f 126/126/126 3/3/3 71/71/71
f 126/126/126 71/71/71 74/74/74
f 128/128/128 124/124/124 125/125/125
f 128/128/128 125/125/125 129/129/129
f 130/130/130 131/131/131 132/132/132
f 130/130/130 132/132/132 133/133/133
f 130/130/130 133/133/133 129/129/129
f 130/130/130 129/129/129 134/134/134
f 135/135/135 128/128/128 129/129/129
f 135/135/135 129/129/129 133/133/133
f 135/135/135 133/133/133 132/132/132
f 135/135/135 132/132/132 136/136/136
f 137/137/137 132/132/132 131/131/131
f 137/137/137 131/131/131 138/138/138
f 137/137/137 138/138/138 79/79/79
f 137/137/137 79/79/79 41/41/41
f 136/136/136 132/132/132 137/137/137
f 136/136/136 137/137/137 139/139/139
f 137/137/137 41/41/41 44/44/44
f 137/137/137 44/44/44 139/139/139
f 140/140/140 141/141/141 142/142/142
f 140/140/140 142/142/142 143/143/143
f 141/141/141 35/35/35 38/38/38
f 141/141/141 38/38/38 142/142/142
f 101/101/101 100/100/100 144/144/144
f 101/101/101 144/144/144 145/145/145
f 144/144/144 140/140/140 143/143/143
f 144/144/144 143/143/143 145/145/145
f 146/146/146 147/147/147 148/148/148
f 146/146/146 148/148/148 149/149/149
f 147/147/147 150/150/150 151/151/151
f 147/147/147 151/151/151 148/148/148
f 152/152/152 153/153/153 154/154/154
f 152/152/152 154/154/154 155/155/155
f 153/153/153 156/156/156 157/157/157
f 153/153/153 157/157/157 154/154/154
f 154/154/154 157/157/157 158/158/158
f 154/154/154 158/158/158 159/159/159
f 155/155/155 154/154/154 159/159/159
f 155/155/155 159/159/159 160/160/160
f 161/161/161 162/162/162 163/163/163
f 161/161/161 163/163/163 164/164/164
f 162/162/162 165/165/165 166/166/166
f 162/162/162 166/166/166 163/163/163
f 163/163/163 166/166/166 167/167/167
f 163/163/163 167/167/167 168/168/168
f 164/164/164 163/163/163 168/168/168
f 164/164/164 168/168/168 169/169/169
f 170/170/170 171/171/171 172/172/172
f 170/170/170 172/172/172 173/173/173
f 171/171/171 146/146/146 149/149/149
f 171/171/171 149/149/149 172/172/172
f 174/174/174 175/175/175 176/176/176
f 174/174/174 176/176/176 177/177/177
f 175/175/175 170/170/170 173/173/173
f 175/175/175 173/173/173 176/176/176
f 8/8/8 174/174/174 177/177/177
f 8/8/8 177/177/177 9/9/9
f 170/170/170 175/175/175 178/178/178
f 170/170/170 178/178/178 179/179/179
f 175/175/175 174/174/174 180/180/180
f 175/175/175 180/180/180 178/178/178
f 146/146/146 171/171/171 181/181/181
f 146/146/146 181/181/181 182/182/182
f 171/171/171 170/170/170 179/179/179
f 171/171/171 179/179/179 181/181/181
f 150/150/150 147/147/147 183/183/183
f 150/150/150 183/183/183 184/184/184
f 147/147/147 146/146/146 182/182/182
f 147/147/147 182/182/182 183/183/183
f 165/165/165 162/162/162 185/185/185
f 165/165/165 185/185/185 186/186/186
f 162/162/162 161/161/161 187/187/187
f 162/162/162 187/187/187 185/185/185
f 185/185/185 187/187/187 188/188/188
f 185/185/185 188/188/188 189/189/189
f 186/186/186 185/185/185 189/189/189
f 186/186/186 189/189/189 190/190/190
f 191/191/191 192/192/192 193/193/193
f 191/191/191 193/193/193 194/194/194
f 195/195/195 196/196/196 197/197/197
f 195/195/195 197/197/197 198/198/198
f 196/196/196 199/199/199 200/200/200
f 196/196/196 200/200/200 197/197/197
f 200/200/200 199/199/199 201/201/201
f 200/200/200 201/201/201 202/202/202
f 201/201/201 203/203/203 204/204/204
f 201/201/201 204/204/204 202/202/202
f 194/194/194 204/204/204 203/203/203
f 194/194/194 203/203/203 191/191/191
f 180/180/180 174/174/174 8/8/8
f 180/180/180 8/8/8 205/205/205
f 8/8/8 7/7/7 206/206/206
f 8/8/8 206/206/206 205/205/205
f 207/207/207 193/193/193 208/208/208
f 207/207/207 208/208/208 209/209/209
f 208/208/208 210/210/210 211/211/211
f 208/208/208 211/211/211 209/209/209
f 210/210/210 208/208/208 212/212/212
f 210/210/210 212/212/212 213/213/213
f 208/208/208 193/193/193 192/192/192
f 208/208/208 192/192/192 212/212/212
f 214/214/214 150/150/150 184/184/184
f 214/214/214 184/184/184 215/215/215
f 214/214/214 215/215/215 211/211/211
f 214/214/214 211/211/211 210/210/210
f 216/216/216 151/151/151 150/150/150
f 216/216/216 150/150/150 214/214/214
f 216/216/216 214/214/214 210/210/210
f 216/216/216 210/210/210 213/213/213
f 217/217/217 80/80/80 83/83/83
f 217/217/217 83/83/83 218/218/218
f 217/217/217 218/218/218 219/219/219
f 217/217/217 219/219/219 220/220/220
f 221/221/221 222/222/222 223/223/223
f 221/221/221 223/223/223 224/224/224
f 222/222/222 225/225/225 226/226/226
f 222/222/222 226/226/226 223/223/223
f 227/227/227 228/228/228 229/229/229
f 227/227/227 229/229/229 230/230/230
f 228/228/228 231/231/231 232/232/232
f 228/228/228 232/232/232 229/229/229
f 115/115/115 114/114/114 233/233/233
f 115/115/115 233/233/233 234/234/234
f 233/233/233 92/92/92 235/235/235
f 233/233/233 235/235/235 234/234/234
f 236/236/236 18/18/18 17/17/17
f 236/236/236 17/17/17 237/237/237
f 236/236/236 237/237/237 104/104/104
f 236/236/236 104/104/104 107/107/107
f 188/188/188 238/238/238 239/239/239
f 188/188/188 239/239/239 240/240/240
f 238/238/238 195/195/195 198/198/198
f 238/238/238 198/198/198 239/239/239
f 241/241/241 242/242/242 243/243/243
f 241/241/241 243/243/243 244/244/244
f 243/243/243 242/242/242 245/245/245
f 243/243/243 245/245/245 246/246/246
f 245/245/245 247/247/247 248/248/248
f 245/245/245 248/248/248 246/246/246
f 248/248/248 247/247/247 249/249/249
f 248/248/248 249/249/249 250/250/250
f 249/249/249 220/220/220 219/219/219
f 249/249/249 219/219/219 250/250/250
f 251/251/251 227/227/227 230/230/230
f 251/251/251 230/230/230 252/252/252
f 251/251/251 252/252/252 190/190/190
f 251/251/251 190/190/190 253/253/253
f 254/254/254 255/255/255 256/256/256
f 254/254/254 256/256/256 257/257/257
f 255/255/255 258/258/258 259/259/259
f 255/255/255 259/259/259 256/256/256
f 259/259/259 258/258/258 260/260/260
f 259/259/259 260/260/260 261/261/261
f 260/260/260 241/241/241 244/244/244
f 260/260/260 244/244/244 261/261/261
f 262/262/262 263/263/263 264/264/264
f 262/262/262 264/264/264 265/265/265
f 263/263/263 266/266/266 267/267/267
f 263/263/263 267/267/267 264/264/264
f 268/268/268 269/269/269 270/270/270
f 268/268/268 270/270/270 271/271/271
f 269/269/269 262/262/262 265/265/265
f 269/269/269 265/265/265 270/270/270
f 53/53/53 52/52/52 272/272/272
f 53/53/53 272/272/272 273/273/273
f 52/52/52 51/51/51 274/274/274
f 52/52/52 274/274/274 272/272/272
f 272/272/272 274/274/274 224/224/224
f 272/272/272 224/224/224 223/223/223
f 273/273/273 272/272/272 223/223/223
f 273/273/273 223/223/223 226/226/226
f 227/227/227 275/275/275 276/276/276
f 227/227/227 276/276/276 228/228/228
f 275/275/275 158/158/158 157/157/157
f 275/275/275 157/157/157 276/276/276
f 276/276/276 157/157/157 156/156/156
f 276/276/276 156/156/156 277/277/277
f 228/228/228 276/276/276 277/277/277
f 228/228/228 277/277/277 231/231/231
f 278/278/278 267/267/267 266/266/266
f 278/278/278 266/266/266 279/279/279
f 278/278/278 279/279/279 254/254/254
f 278/278/278 254/254/254 257/257/257
f 95/95/95 97/97/97 280/280/280
f 95/95/95 280/280/280 281/281/281
f 95/95/95 281/281/281 235/235/235
f 95/95/95 235/235/235 92/92/92
f 24/24/24 23/23/23 282/282/282
f 24/24/24 282/282/282 283/283/283
f 282/282/282 284/284/284 285/285/285
f 282/282/282 285/285/285 283/283/283
f 268/268/268 271/271/271 286/286/286
f 268/268/268 286/286/286 287/287/287
f 286/286/286 288/288/288 289/289/289
f 286/286/286 289/289/289 287/287/287
f 285/285/285 284/284/284 290/290/290
f 285/285/285 290/290/290 291/291/291
f 290/290/290 292/292/292 293/293/293
f 290/290/290 293/293/293 291/291/291
f 293/293/293 292/292/292 294/294/294
f 293/293/293 294/294/294 295/295/295
f 294/294/294 289/289/289 288/288/288
f 294/294/294 288/288/288 295/295/295
f 188/188/188 240/240/240 296/296/296
f 188/188/188 296/296/296 189/189/189
f 296/296/296 253/253/253 190/190/190
f 296/296/296 190/190/190 189/189/189
f 297/297/297 221/221/221 224/224/224
f 297/297/297 224/224/224 298/298/298
f 297/297/297 298/298/298 280/280/280
f 297/297/297 280/280/280 97/97/97
# Vertices: 298, normals: 298, texture coordinates: 298, faces: 330

